<svg width="245" height="206" viewBox="0 0 245 206" fill="none" xmlns="http://www.w3.org/2000/svg">
<g clip-path="url(#clip0_111_27939)" filter="url(#filter0_d_111_27939)">
<path d="M155.028 148.434V196.164H51.2776C39.4566 196.164 29.8389 185.458 29.8389 172.299C29.8389 159.141 39.4565 148.434 51.2776 148.434H155.028Z" fill="#F2F2F2"/>
<path d="M157.577 195.797C157.577 196.284 157.409 196.751 157.11 197.095C156.812 197.439 156.407 197.633 155.984 197.633H49.4299C43.6428 197.633 38.0926 194.983 34.0005 190.267C29.9083 185.55 27.6094 179.153 27.6094 172.483C27.6094 165.813 29.9083 159.416 34.0005 154.699C38.0926 149.983 43.6428 147.333 49.4299 147.333H155.984C156.407 147.333 156.812 147.526 157.111 147.871C157.409 148.215 157.577 148.682 157.577 149.169C157.577 149.656 157.409 150.123 157.111 150.467C156.812 150.811 156.407 151.005 155.984 151.005H49.4299C44.4876 151.005 39.7477 153.267 36.2529 157.295C32.7582 161.323 30.7949 166.787 30.7949 172.483C30.7949 178.179 32.7582 183.642 36.2529 187.67C39.7477 191.698 44.4876 193.961 49.4299 193.961H155.984C156.407 193.962 156.812 194.155 157.11 194.499C157.409 194.843 157.577 195.31 157.577 195.797Z" fill="#00B0FF"/>
<path d="M155.028 159.449H43.5363C43.4518 159.449 43.3708 159.41 43.3111 159.341C43.2513 159.273 43.2178 159.179 43.2178 159.082C43.2178 158.984 43.2513 158.891 43.3111 158.822C43.3708 158.753 43.4518 158.715 43.5363 158.715H155.028C155.113 158.715 155.194 158.753 155.254 158.822C155.313 158.891 155.347 158.984 155.347 159.082C155.347 159.179 155.313 159.273 155.254 159.341C155.194 159.41 155.113 159.449 155.028 159.449Z" fill="#CCCCCC"/>
<path d="M155.028 168.261H43.5363C43.4518 168.261 43.3708 168.222 43.3111 168.153C43.2513 168.084 43.2178 167.991 43.2178 167.894C43.2178 167.796 43.2513 167.703 43.3111 167.634C43.3708 167.565 43.4518 167.526 43.5363 167.526H155.028C155.113 167.526 155.194 167.565 155.254 167.634C155.313 167.703 155.347 167.796 155.347 167.894C155.347 167.991 155.313 168.084 155.254 168.153C155.194 168.222 155.113 168.261 155.028 168.261Z" fill="#CCCCCC"/>
<path d="M155.028 177.072H43.5363C43.4518 177.072 43.3708 177.034 43.3111 176.965C43.2513 176.896 43.2178 176.803 43.2178 176.705C43.2178 176.608 43.2513 176.514 43.3111 176.446C43.3708 176.377 43.4518 176.338 43.5363 176.338H155.028C155.113 176.338 155.194 176.377 155.254 176.446C155.313 176.514 155.347 176.608 155.347 176.705C155.347 176.803 155.313 176.896 155.254 176.965C155.194 177.034 155.113 177.072 155.028 177.072Z" fill="#CCCCCC"/>
<path d="M155.028 185.884H43.5363C43.4518 185.884 43.3708 185.845 43.3111 185.776C43.2513 185.708 43.2178 185.614 43.2178 185.517C43.2178 185.419 43.2513 185.326 43.3111 185.257C43.3708 185.188 43.4518 185.15 43.5363 185.15H155.028C155.113 185.15 155.194 185.188 155.254 185.257C155.313 185.326 155.347 185.419 155.347 185.517C155.347 185.614 155.313 185.708 155.254 185.776C155.194 185.845 155.113 185.884 155.028 185.884Z" fill="#CCCCCC"/>
<path d="M235.213 157.419L209.23 194.585L128.442 119.558C119.237 111.009 117.576 95.7175 124.739 85.471C131.902 75.2245 145.219 73.843 154.424 82.3914L235.213 157.419Z" fill="#F2F2F2"/>
<path d="M211.415 196.142C211.149 196.521 210.765 196.763 210.345 196.815C209.925 196.867 209.504 196.725 209.175 196.42L126.203 119.365C121.697 115.18 118.817 109.103 118.198 102.471C117.58 95.8391 119.272 89.1955 122.903 84.0015C126.534 78.8076 131.806 75.4889 137.56 74.7755C143.314 74.062 149.078 76.0124 153.585 80.1974L236.556 157.252C236.719 157.404 236.855 157.59 236.955 157.802C237.056 158.014 237.119 158.246 237.141 158.486C237.164 158.725 237.145 158.968 237.086 159.199C237.027 159.431 236.929 159.647 236.798 159.834C236.667 160.022 236.505 160.178 236.321 160.294C236.137 160.409 235.936 160.482 235.728 160.508C235.52 160.534 235.309 160.512 235.109 160.444C234.908 160.376 234.721 160.263 234.558 160.111L151.586 83.0563C149.68 81.2853 147.491 79.9643 145.142 79.1689C142.794 78.3734 140.332 78.119 137.899 78.4202C135.465 78.7214 133.106 79.5723 130.958 80.9243C128.81 82.2763 126.913 84.1029 125.377 86.2998C123.842 88.4967 122.696 91.0208 122.007 93.7279C121.318 96.4351 121.098 99.2722 121.36 102.077C121.623 104.882 122.362 107.6 123.536 110.076C124.71 112.552 126.295 114.737 128.202 116.506L211.174 193.561C211.502 193.867 211.713 194.31 211.758 194.794C211.803 195.278 211.679 195.763 211.415 196.142Z" fill="#CCCCCC"/>
<path d="M229.217 165.996L142.4 85.3702C142.367 85.34 142.34 85.3026 142.32 85.2603C142.3 85.218 142.288 85.1715 142.283 85.1236C142.279 85.0756 142.282 85.0272 142.294 84.9809C142.306 84.9346 142.325 84.8915 142.352 84.854C142.378 84.8164 142.41 84.7852 142.447 84.7621C142.484 84.739 142.524 84.7244 142.566 84.7193C142.607 84.7141 142.649 84.7184 142.69 84.732C142.73 84.7456 142.767 84.7682 142.8 84.7984L229.616 165.424C229.649 165.454 229.676 165.492 229.696 165.534C229.716 165.576 229.729 165.623 229.733 165.671C229.738 165.719 229.734 165.767 229.722 165.814C229.711 165.86 229.691 165.903 229.665 165.941C229.638 165.978 229.606 166.009 229.569 166.033C229.533 166.056 229.492 166.07 229.451 166.075C229.409 166.08 229.367 166.076 229.327 166.062C229.287 166.049 229.249 166.026 229.217 165.996Z" fill="#CCCCCC"/>
<path d="M224.42 172.857L137.604 92.2316C137.538 92.1705 137.496 92.0818 137.487 91.985C137.478 91.8883 137.503 91.7914 137.556 91.7156C137.609 91.6399 137.686 91.5915 137.77 91.581C137.854 91.5705 137.938 91.5989 138.003 91.6598L224.82 172.285C224.853 172.316 224.88 172.353 224.9 172.395C224.92 172.438 224.933 172.484 224.937 172.532C224.942 172.58 224.938 172.629 224.926 172.675C224.914 172.721 224.895 172.764 224.869 172.802C224.842 172.84 224.81 172.871 224.773 172.894C224.736 172.917 224.696 172.932 224.654 172.937C224.613 172.942 224.571 172.937 224.53 172.924C224.49 172.91 224.453 172.888 224.42 172.857Z" fill="#CCCCCC"/>
<path d="M219.623 179.719L132.806 99.0931C132.74 99.032 132.698 98.9433 132.689 98.8465C132.68 98.7497 132.705 98.6527 132.758 98.5769C132.811 98.501 132.888 98.4526 132.972 98.4422C133.056 98.4318 133.14 98.4602 133.206 98.5213L220.022 179.147C220.055 179.177 220.082 179.215 220.102 179.257C220.122 179.299 220.135 179.346 220.139 179.394C220.144 179.442 220.14 179.49 220.128 179.536C220.116 179.583 220.097 179.626 220.071 179.663C220.044 179.701 220.012 179.732 219.975 179.755C219.939 179.778 219.898 179.793 219.857 179.798C219.815 179.803 219.773 179.799 219.733 179.785C219.693 179.772 219.655 179.749 219.623 179.719Z" fill="#CCCCCC"/>
<path d="M214.826 186.58L128.009 105.955C127.977 105.924 127.95 105.887 127.93 105.845C127.91 105.802 127.897 105.756 127.892 105.708C127.888 105.66 127.892 105.612 127.904 105.565C127.915 105.519 127.935 105.476 127.961 105.438C127.987 105.401 128.02 105.37 128.057 105.346C128.093 105.323 128.134 105.309 128.175 105.304C128.217 105.298 128.259 105.303 128.299 105.316C128.339 105.33 128.376 105.353 128.409 105.383L215.226 186.008C215.258 186.039 215.285 186.076 215.305 186.118C215.326 186.161 215.338 186.207 215.343 186.255C215.347 186.303 215.344 186.352 215.332 186.398C215.32 186.444 215.3 186.487 215.274 186.525C215.248 186.563 215.215 186.594 215.179 186.617C215.142 186.64 215.102 186.655 215.06 186.66C215.018 186.665 214.976 186.66 214.936 186.647C214.896 186.633 214.858 186.611 214.826 186.58Z" fill="#CCCCCC"/>
<path d="M240.681 198H4.31855C4.23406 198 4.15304 197.961 4.0933 197.893C4.03356 197.824 4 197.73 4 197.633C4 197.536 4.03356 197.442 4.0933 197.373C4.15304 197.304 4.23406 197.266 4.31855 197.266H240.681C240.766 197.266 240.847 197.304 240.907 197.373C240.966 197.442 241 197.536 241 197.633C241 197.73 240.966 197.824 240.907 197.893C240.847 197.961 240.766 198 240.681 198Z" fill="#CCCCCC"/>
<path d="M111.695 143.418L108.053 143.417L106.321 127.227L111.696 127.228L111.695 143.418Z" fill="#FFB8B8"/>
<path d="M105.452 142.218H112.476V147.315H101.03C101.03 146.645 101.145 145.983 101.367 145.364C101.589 144.746 101.915 144.184 102.325 143.711C102.736 143.238 103.224 142.862 103.76 142.606C104.297 142.35 104.872 142.218 105.452 142.218Z" fill="#2F2E41"/>
<path d="M74.4908 143.418L70.8491 143.417L69.1172 127.227L74.492 127.228L74.4908 143.418Z" fill="#FFB8B8"/>
<path d="M68.2473 142.218H75.2706V147.315H63.8252C63.8252 146.645 63.9396 145.983 64.1618 145.364C64.384 144.746 64.7098 144.184 65.1204 143.711C65.531 143.238 66.0185 142.862 66.555 142.606C67.0915 142.35 67.6665 142.218 68.2473 142.218Z" fill="#2F2E41"/>
<path d="M86.6543 23.3263V21.4906C86.6543 18.3502 87.7366 15.3385 89.6632 13.118C91.5898 10.8974 94.2029 9.6499 96.9275 9.6499C99.6521 9.6499 102.265 10.8974 104.192 13.118C106.118 15.3385 107.201 18.3502 107.201 21.4906V23.3263C107.201 25.5903 106.42 27.7615 105.031 29.3624C103.642 30.9633 101.759 31.8626 99.7944 31.8626H94.0606C93.088 31.8626 92.1249 31.6418 91.2263 31.2129C90.3277 30.7839 89.5113 30.1551 88.8235 29.3624C88.1358 28.5697 87.5903 27.6287 87.2181 26.593C86.8459 25.5574 86.6543 24.4473 86.6543 23.3263Z" fill="#2F2E41"/>
<path d="M96.9274 32.4943C101.248 32.4943 104.751 28.4569 104.751 23.4766C104.751 18.4963 101.248 14.459 96.9274 14.459C92.6064 14.459 89.1035 18.4963 89.1035 23.4766C89.1035 28.4569 92.6064 32.4943 96.9274 32.4943Z" fill="#FFB8B8"/>
<path d="M54.3705 54.469C54.6881 54.1235 55.0674 53.8624 55.482 53.7041C55.8965 53.5458 56.3361 53.4942 56.7698 53.5529C57.2035 53.6116 57.6207 53.7793 57.9922 54.0439C58.3636 54.3086 58.6801 54.664 58.9195 55.0849L65.6264 53.6226L67.3915 58.1036L57.8948 60.0152C57.2546 60.4319 56.5041 60.5633 55.7854 60.3848C55.0667 60.2062 54.4298 59.73 53.9954 59.0463C53.561 58.3627 53.3592 57.5191 53.4284 56.6755C53.4975 55.8319 53.8327 55.0468 54.3705 54.469Z" fill="#FFB8B8"/>
<path d="M90.9148 38.3264L79.9167 46.677L61.3586 53.5073C61.1126 53.5984 60.9016 53.7849 60.7615 54.0352C60.6214 54.2854 60.5609 54.5839 60.5902 54.8798L60.9951 58.8989C61.0131 59.0767 61.0631 59.2483 61.1419 59.4026C61.2208 59.5569 61.3267 59.6905 61.453 59.7949C61.5793 59.8992 61.7231 59.972 61.8752 60.0085C62.0273 60.0451 62.1843 60.0446 62.3363 60.0071L79.8022 55.6921C80.6474 55.4844 81.4467 55.0788 82.1504 54.5005L94.5062 44.3682C94.9541 43.9989 95.3115 43.5023 95.5436 42.9266C95.7757 42.351 95.8747 41.7159 95.8308 41.0831C95.7855 40.4495 95.5979 39.8404 95.2863 39.3157C94.9748 38.791 94.5502 38.3688 94.0542 38.0907C93.5581 37.8125 93.0078 37.688 92.4574 37.7293C91.907 37.7706 91.3753 37.9764 90.9148 38.3264Z" fill="#CCCCCC"/>
<path d="M108.119 138.823C107.839 138.823 107.566 138.73 107.332 138.554C107.098 138.377 106.913 138.127 106.801 137.832L90.1057 90.2851C90.0667 90.182 90.0013 90.0951 89.9182 90.0361C89.8351 89.9771 89.7383 89.9489 89.6409 89.9552C89.5434 89.9616 89.45 90.0021 89.3731 90.0715C89.2963 90.1408 89.2397 90.2357 89.2111 90.3432L75.5905 136.631C75.533 136.847 75.4378 137.046 75.3109 137.218C75.1841 137.389 75.0281 137.529 74.8526 137.629C74.6771 137.728 74.4858 137.785 74.2905 137.796C74.0952 137.807 73.9 137.772 73.7169 137.693L69.1494 135.719C68.9015 135.613 68.684 135.429 68.5211 135.189C68.3582 134.949 68.2562 134.661 68.2266 134.359C66.1718 113.727 84.0903 61.6515 84.2716 61.1281L84.3218 60.983L100.656 65.1476L100.69 65.1902C107.207 73.3843 112.563 125.066 113.571 135.343C113.609 135.715 113.535 136.089 113.363 136.406C113.191 136.723 112.931 136.963 112.625 137.086L108.593 138.729C108.441 138.792 108.28 138.823 108.119 138.823Z" fill="#2F2E41"/>
<path d="M94.0446 66.8238C90.0871 66.8238 85.6749 65.9144 84.3168 62.1607L84.2856 62.0745L84.3278 61.9945C85.3998 59.9673 86.8166 56.5091 86.0551 55.86C84.555 54.5816 83.827 52.4785 83.8916 49.6091C84.0319 43.38 87.7144 37.8496 93.055 35.8473C94.5457 35.2975 96.0627 34.8473 97.5985 34.499C98.7181 34.2386 99.8738 34.2673 100.983 34.5829C102.092 34.8985 103.126 35.4932 104.012 36.3244C104.909 37.161 105.634 38.2161 106.134 39.4141C106.635 40.612 106.9 41.923 106.909 43.2527C106.965 49.9095 106.076 59.181 101.522 65.5463C101.308 65.8416 101.011 66.0407 100.683 66.1085C98.4921 66.5653 96.2711 66.8046 94.0446 66.8238Z" fill="#CCCCCC"/>
<path d="M92.5732 66.5745C92.7885 65.6841 93.3001 64.9276 93.9967 64.4694C94.6933 64.0113 95.5186 63.8885 96.2933 64.1278C96.4515 64.1787 96.6057 64.2446 96.7545 64.3247L101.847 58.983L105.389 61.7331L98.1061 69.1609C97.7772 69.8443 97.2595 70.3813 96.6354 70.6864C96.0112 70.9916 95.3164 71.0474 94.6615 70.8449C94.2801 70.7246 93.9231 70.5183 93.6112 70.238C93.2994 69.9576 93.0388 69.6089 92.8446 69.2118C92.6504 68.8147 92.5264 68.3771 92.4798 67.9245C92.4332 67.4718 92.465 67.013 92.5732 66.5745Z" fill="#FFB8B8"/>
<path d="M101.04 66.6423C100.709 66.6426 100.389 66.5109 100.133 66.2696L98.125 64.3781C97.9576 64.2204 97.8233 64.0211 97.7322 63.7952C97.6411 63.5692 97.5955 63.3224 97.5988 63.0732C97.6021 62.8241 97.6543 62.579 97.7515 62.3564C97.8486 62.1338 97.9882 61.9394 98.1598 61.7878L106.583 54.342C106.683 54.2533 106.748 54.1228 106.765 53.9788C106.782 53.8349 106.749 53.689 106.673 53.5729L101.474 45.6512C100.87 44.7339 100.567 43.5999 100.619 42.4499C100.671 41.2998 101.074 40.208 101.757 39.3676C102.476 38.4721 103.462 37.921 104.517 37.8237C105.573 37.7264 106.621 38.09 107.455 38.8424L107.488 38.8824L112.917 47.8417C113.504 48.3722 113.976 49.0519 114.298 49.8278C114.619 50.6037 114.781 51.4547 114.77 52.3144C114.758 53.1741 114.575 54.0192 114.234 54.7837C113.892 55.5482 113.402 56.2114 112.802 56.7215L101.893 66.3184C101.646 66.5288 101.347 66.6423 101.04 66.6423Z" fill="#CCCCCC"/>
<path d="M89.9971 20.9398V16.4656L96.9273 12.9777L103.535 16.4656V20.9398C103.535 21.1345 103.468 21.3213 103.349 21.459C103.229 21.5967 103.067 21.6741 102.898 21.6741H90.6342C90.4652 21.6741 90.3031 21.5967 90.1837 21.459C90.0642 21.3213 89.9971 21.1345 89.9971 20.9398Z" fill="#2F2E41"/>
<path d="M96.6088 10.2434C95.5899 6.48431 97.7299 2.17621 100.894 0.688267C104.057 -0.799679 107.842 0.240441 110.512 2.69875C113.181 5.15706 114.837 8.83915 115.715 12.6453C116.593 16.4515 116.759 20.4205 116.921 24.3543C120.808 25.1772 123.452 30.491 122.106 34.7735C120.759 39.056 115.775 41.1835 112.334 38.9452C108.892 36.7068 107.895 30.6899 110.379 27.1472C111.554 25.4709 112.211 23.3905 112.245 21.2355C112.278 19.0806 111.687 16.9742 110.565 15.25C109.443 13.5259 107.854 12.2825 106.05 11.7169C104.245 11.1512 102.328 11.2956 100.603 12.1271C98.6876 13.0505 96.2839 10.6514 96.6088 10.2434Z" fill="#2F2E41"/>
<path d="M52.9333 37.1128C48.2795 37.0776 43.6839 35.9175 39.4434 33.7075C39.191 33.5779 38.9767 33.3664 38.8267 33.0988C38.6767 32.8313 38.5975 32.5192 38.5986 32.2007V18.8298C38.5991 18.3918 38.7502 17.9718 39.019 17.6621C39.2877 17.3523 39.6521 17.1781 40.0321 17.1776H65.8345C66.2146 17.1781 66.5789 17.3523 66.8477 17.6621C67.1164 17.9718 67.2676 18.3918 67.268 18.8298V32.2007C67.2692 32.5193 67.1899 32.8313 67.0399 33.0988C66.8899 33.3664 66.6757 33.5779 66.4233 33.7075C62.1827 35.9175 57.5871 37.0776 52.9333 37.1128Z" fill="#00B0FF"/>
<path d="M52.9304 26.2807C52.7391 26.2809 52.5497 26.237 52.3734 26.1517L31.9124 16.202C31.6485 16.0737 31.424 15.8572 31.2679 15.5805C31.1118 15.3038 31.0311 14.9796 31.0364 14.6496C31.0416 14.3195 31.1325 13.9989 31.2974 13.729C31.4622 13.4591 31.6934 13.2522 31.9611 13.1352L52.4224 4.18849C52.7519 4.04373 53.1163 4.04462 53.4453 4.191L73.6324 13.1376C73.8987 13.2557 74.1283 13.4625 74.292 13.7318C74.4556 14.0011 74.5458 14.3205 74.5511 14.6492C74.5564 14.978 74.4765 15.301 74.3215 15.5771C74.1666 15.8531 73.9438 16.0697 73.6815 16.1989L53.4942 26.1484C53.3159 26.2359 53.1241 26.2809 52.9304 26.2807Z" fill="#00B0FF"/>
<path d="M40.9884 34.6173C42.044 34.6173 42.8997 33.631 42.8997 32.4143C42.8997 31.1977 42.044 30.2114 40.9884 30.2114C39.9329 30.2114 39.0771 31.1977 39.0771 32.4143C39.0771 33.631 39.9329 34.6173 40.9884 34.6173Z" fill="#3F3D56"/>
<path opacity="0.2" d="M73.7513 14.7866L53.5639 24.7361C53.4065 24.8137 53.2372 24.8539 53.066 24.8544C52.8948 24.8548 52.7254 24.8156 52.5676 24.7389L32.1067 14.7895C31.8497 14.6675 31.6353 14.4503 31.4974 14.1723C31.4072 14.3526 31.3513 14.553 31.3334 14.7601C31.3155 14.9672 31.3361 15.1764 31.3937 15.3736C31.4513 15.5709 31.5447 15.7518 31.6676 15.9043C31.7905 16.0568 31.9402 16.1774 32.1067 16.2581L52.5676 26.2075C52.7254 26.2842 52.8948 26.3234 53.066 26.323C53.2372 26.3225 53.4065 26.2823 53.5639 26.2047L73.7513 16.2552C73.9169 16.1738 74.0656 16.0528 74.1877 15.9002C74.3098 15.7476 74.4024 15.567 74.4594 15.3701C74.5165 15.1733 74.5366 14.9647 74.5186 14.7582C74.5005 14.5518 74.4447 14.352 74.3548 14.1722C74.2178 14.4481 74.0057 14.6641 73.7513 14.7866Z" fill="black"/>
<path d="M41.1486 32.4058C41.2331 32.4058 41.3141 32.3671 41.3739 32.2983C41.4336 32.2294 41.4672 32.136 41.4672 32.0387V19.7532L51.9733 15.3418C52.0578 15.3433 52.1393 15.306 52.1999 15.2382C52.2605 15.1703 52.2953 15.0775 52.2966 14.9802C52.2978 14.8828 52.2655 14.7888 52.2066 14.7189C52.1478 14.6491 52.0673 14.609 51.9828 14.6075L41.4767 19.0189C41.3921 19.0167 41.3081 19.0342 41.2296 19.0705C41.1511 19.1068 41.0798 19.1611 41.0201 19.2301C40.9597 19.2983 40.9118 19.3797 40.8791 19.4695C40.8465 19.5594 40.8298 19.6558 40.8301 19.7532V32.0387C40.8301 32.136 40.8636 32.2294 40.9234 32.2983C40.9831 32.3671 41.0641 32.4058 41.1486 32.4058Z" fill="#3F3D56"/>
</g>
<defs>
<filter id="filter0_d_111_27939" x="0" y="0" width="245" height="206" filterUnits="userSpaceOnUse" color-interpolation-filters="sRGB">
<feFlood flood-opacity="0" result="BackgroundImageFix"/>
<feColorMatrix in="SourceAlpha" type="matrix" values="0 0 0 0 0 0 0 0 0 0 0 0 0 0 0 0 0 0 127 0" result="hardAlpha"/>
<feOffset dy="4"/>
<feGaussianBlur stdDeviation="2"/>
<feComposite in2="hardAlpha" operator="out"/>
<feColorMatrix type="matrix" values="0 0 0 0 0 0 0 0 0 0 0 0 0 0 0 0 0 0 0.25 0"/>
<feBlend mode="normal" in2="BackgroundImageFix" result="effect1_dropShadow_111_27939"/>
<feBlend mode="normal" in="SourceGraphic" in2="effect1_dropShadow_111_27939" result="shape"/>
</filter>
<clipPath id="clip0_111_27939">
<rect width="237" height="198" fill="white" transform="translate(4)"/>
</clipPath>
</defs>
</svg>
